# xmcd
#
# Track frame offsets: 
#        150
#        23642
#        49446
#        69653
#        90010
#        109886
#        127737
#        147822
#        167124
#        180918
#        200126
#        224133
#        247259
#        272759
#        289718
#        313549
#
# Disc length: 4388 seconds
#
# Revision: 0
# Processed by: cddbd v1.5.2PL0 Copyright (c) Steve Scherf et al.
# Submitted via: ExactAudioCopy v0.99pb5
#
DISCID=ef112210
DTITLE=Various Artist - Billboard 1990
DYEAR=2000
DGENRE=Other
TTITLE0=Scorpions - Wind of Change
TTITLE1=Extreme - More Than Words
TTITLE2=New Kids on the Block - Step by Step
TTITLE3=Vanilla Ice - Ice Ice Baby
TTITLE4=Roxette - It Must Have Been Love
TTITLE5=INXS - Suicide Blonde
TTITLE6=Milli Vanilli - Girl I'm Gonna Miss You
TTITLE7=MC Hammer - U Can't Touch This
TTITLE8=The B-52's - Love Shack
TTITLE9=Midnight Oil - Blue Sky Mine
TTITLE10=Phil Collins - Another Day in Paradise
TTITLE11=Sinéad O'Connor - Nothing Compares 2 U
TTITLE12=Jon Bon Jovi - Blaze of Glory
TTITLE13=Poison - Unskinny Bop
TTITLE14=Madonna - Vogue
TTITLE15=New Kids on the Block - Tonight
EXTD=
EXTT0=
EXTT1=
EXTT2=
EXTT3=
EXTT4=
EXTT5=
EXTT6=
EXTT7=
EXTT8=
EXTT9=
EXTT10=
EXTT11=
EXTT12=
EXTT13=
EXTT14=
EXTT15=
PLAYORDER=
